<?xml version="1.0" encoding="UTF-8" standalone="no"?>
<!-- Generator: Gravit.io -->
<svg xmlns="http://www.w3.org/2000/svg" xmlns:xlink="http://www.w3.org/1999/xlink" style="isolation:isolate" viewBox="0 0 1000 300" width="1000pt" height="300pt"><defs><clipPath id="_clipPath_BT7ohoXN58LVZrSK21TbHKR2wC6Tx3WM"><rect width="1000" height="300"/></clipPath></defs><g clip-path="url(#_clipPath_BT7ohoXN58LVZrSK21TbHKR2wC6Tx3WM)"><rect width="1000" height="300" style="fill:rgb(0,0,0)" fill-opacity="0"/><g><path d=" M 0 0 L 1000 0 L 1000 300 L 0 300 L 0 0 Z " fill="none"/><g><path d=" M 386.178 202.125 L 370.888 202.125 L 408.557 104.825 L 423.847 104.825 L 461.238 202.125 L 445.253 202.125 L 436.079 177.939 L 395.352 177.939 L 386.178 202.125 Z  M 408.279 144.023 L 408.279 144.023 L 400.912 163.483 L 430.658 163.483 L 423.013 143.467 L 423.013 143.467 Q 422.596 142.494 421.345 138.602 L 421.345 138.602 L 421.345 138.602 Q 420.094 134.71 418.565 129.984 L 418.565 129.984 L 418.565 129.984 Q 417.036 125.258 415.785 121.644 L 415.785 121.644 L 415.785 121.644 Q 414.673 125.258 413.283 129.567 L 413.283 129.567 L 413.283 129.567 Q 411.893 133.876 410.572 137.768 L 410.572 137.768 L 410.572 137.768 Q 409.252 141.66 408.279 144.023 Z " fill-rule="evenodd" fill="rgb(255,255,255)"/><path d=" M 473.683 132.655 Q 485.621 163.192 492.374 181.136 L 515 117.891 L 537.966 103.435 L 498.768 200.735 L 492.374 200.735 L 484.173 200.735 L 455.837 129.896 L 473.683 132.655 L 473.683 132.655 Z " fill="rgb(255,255,255)"/><path d=" M 473.674 132.631 Q 471.183 126.241 467.913 117.891 L 445.253 103.435 L 451.509 119.076 L 473.674 132.631 L 473.674 132.631 Z " fill="rgb(255,255,255)"/><path d=" M 621.213 200.735 L 549.913 200.735 L 549.913 103.435 L 621.213 103.435 L 601.213 117.891 L 564.925 117.891 L 564.925 143.606 L 603.567 143.606 L 603.567 158.062 L 564.925 158.062 L 564.925 186.279 L 601.213 186.279 L 621.213 200.735 Z " fill="rgb(255,255,255)"/><path d=" M 665.283 202.125 L 665.283 202.125 L 665.283 202.125 Q 641.653 202.125 628.587 183.221 L 628.587 183.221 L 638.873 171.406 L 638.873 171.406 Q 645.684 181.136 651.939 184.889 L 651.939 184.889 L 651.939 184.889 Q 658.194 188.642 666.812 188.642 L 666.812 188.642 L 666.812 188.642 Q 674.735 188.642 680.226 185.028 L 680.226 185.028 L 680.226 185.028 Q 685.716 181.414 685.716 175.715 L 685.716 175.715 L 685.716 175.715 Q 685.716 169.321 680.295 165.221 L 680.295 165.221 L 680.295 165.221 Q 674.874 161.12 663.198 158.896 L 663.198 158.896 L 663.198 158.896 Q 633.452 153.058 633.452 129.289 L 633.452 129.289 L 633.452 129.289 Q 633.452 121.366 637.9 115.25 L 637.9 115.25 L 637.9 115.25 Q 642.348 109.134 649.924 105.59 L 649.924 105.59 L 649.924 105.59 Q 657.499 102.045 666.951 102.045 L 666.951 102.045 L 666.951 102.045 Q 689.886 102.045 699.894 119.142 L 699.894 119.142 L 689.33 129.567 L 689.33 129.567 Q 685.16 122.756 679.391 119.142 L 679.391 119.142 L 679.391 119.142 Q 673.623 115.528 666.534 115.528 L 666.534 115.528 L 666.534 115.528 Q 658.472 115.528 653.468 119.212 L 653.468 119.212 L 653.468 119.212 Q 648.464 122.895 648.464 128.872 L 648.464 128.872 L 648.464 128.872 Q 648.464 134.849 652.981 138.533 L 652.981 138.533 L 652.981 138.533 Q 657.499 142.216 668.48 144.44 L 668.48 144.44 L 668.48 144.44 Q 683.77 147.637 692.249 154.726 L 692.249 154.726 L 692.249 154.726 Q 700.728 161.815 700.728 171.823 L 700.728 171.823 L 700.728 171.823 Q 700.728 185.723 691.206 193.924 L 691.206 193.924 L 691.206 193.924 Q 681.685 202.125 665.283 202.125 Z " fill="rgb(255,255,255)"/><path d=" M 732.976 200.735 L 718.659 200.735 L 718.659 114.333 L 732.976 97.875 L 732.976 200.735 Z " fill="rgb(255,255,255)"/><path d=" M 762.027 200.735 L 746.737 200.735 L 784.406 103.435 L 799.696 103.435 L 837.087 200.735 L 821.102 200.735 L 811.928 176.549 L 771.201 176.549 L 762.027 200.735 Z  M 784.128 142.633 L 784.128 142.633 L 776.761 162.093 L 806.507 162.093 L 798.862 142.077 L 798.862 142.077 Q 798.445 141.104 797.194 137.212 L 797.194 137.212 L 797.194 137.212 Q 795.943 133.32 794.414 128.594 L 794.414 128.594 L 794.414 128.594 Q 792.885 123.868 791.634 120.254 L 791.634 120.254 L 791.634 120.254 Q 790.522 123.868 789.132 128.177 L 789.132 128.177 L 789.132 128.177 Q 787.742 132.486 786.421 136.378 L 786.421 136.378 L 786.421 136.378 Q 785.101 140.27 784.128 142.633 Z " fill-rule="evenodd" fill="rgb(255,255,255)"/></g><g><linearGradient id="_lgradient_2" x1="0" y1="0.5" x2="1" y2="0.5" gradientTransform="matrix(149.525,0,0,120.89,162.913,87.455)" gradientUnits="userSpaceOnUse"><stop offset="0%" stop-opacity="1" style="stop-color:rgb(17,173,221)"/><stop offset="100%" stop-opacity="1" style="stop-color:rgb(255,41,234)"/></linearGradient><rect x="162.913" y="87.455" width="149.525" height="120.89" transform="matrix(1,0,0,1,0,0)" fill="url(#_lgradient_2)"/><linearGradient id="_lgradient_3" x1="0.1464466094067262" y1="0.1464466094067262" x2="0.8535533905932737" y2="0.8535533905932737" gradientTransform="matrix(84.205,0,0,174.449,195.571,76)" gradientUnits="userSpaceOnUse"><stop offset="0%" stop-opacity="1" style="stop-color:rgb(255,255,255)"/><stop offset="97.91666666666666%" stop-opacity="1" style="stop-color:rgb(217,217,217)"/></linearGradient><path d=" M 195.571 76 L 237.675 76 L 237.675 210.335 L 195.571 210.335 L 195.571 76 Z  M 237.675 210.335 L 237.675 250.449 L 195.571 210.335 L 237.675 210.335 Z  M 279.775 76 L 237.675 76 L 237.675 210.335 L 279.775 210.335 L 279.775 76 Z  M 237.675 210.335 L 237.675 250.449 L 279.775 210.335 L 237.675 210.335 Z " fill-rule="evenodd" fill="url(#_lgradient_3)"/></g></g></g></svg>